<?xml version="1.0" encoding="UTF-8"?><svg id="Layer_1" xmlns="http://www.w3.org/2000/svg" viewBox="0 0 316.13 318.47"><defs><style>.cls-1{fill:#e2e2e2;}</style></defs><path class="cls-1" d="m188.4,159.39c-2,38.75-60.67,39.4-60.67,0s58.71-38.77,60.67,0Z"/><path class="cls-1" d="m94.95,141.72H.01c2.41-22.64,9.68-44.48,21.31-64.05C55.03,21.29,122.5-9.71,187.27,2.72c69.4,13.29,120.43,70.47,128.83,139h-95.42c-8.26-27.36-32-48-62.62-48s-55.15,20.65-63.11,48Z"/><path class="cls-1" d="m316.13,177.11c-7.25,59.18-46.32,111.5-103.72,132.07h-.01c-63.28,22.69-135.13,2.85-177.83-49.07C15.23,236.39,3.22,207.55,0,177.11h94.87c7.91,27.39,33.7,48,63.19,48s54.36-20.68,62.62-48h95.45Z"/></svg>